# xmcd
# Track frame offsets:
# 150
# 9990
# 21062
# 32898
# 38077
# 52805
# 69657
# 90458
# 102717
# 117547
# 130841
# 139086
# 150665
# 164846
#
# Disc length: 2397 seconds
# Revision: 0
# Processed by: cddbd v1.4PL0 Copyright (c) Steve Scherf et al.
# Submitted via: VisiTrax 2.9.3.171 - For more info visit www.synapsa.com
#
DISCID=ba095b0e
DTITLE=Cash, Johnny - American III: Solitary Man
DYEAR=2003
DGENRE=Country
TTITLE0=I Won't Back Down
TTITLE1=Solitary Man
TTITLE2=That Lucky Old Sun (Just Rolls Around Heaven All Day)
TTITLE3=One
TTITLE4=Nobody
TTITLE5=I See A Darkness
TTITLE6=The Mercy Seat
TTITLE7=Would You Lay With Me (In A Field Of Stone)
TTITLE8=Field Of Diamonds
TTITLE9=Before My Time
TTITLE10=Country Trash
TTITLE11=Mary Of The Wild Moor
TTITLE12=I'm Leavin' Now
TTITLE13=Wayfaring Stranger
EXTD=
EXTT0=
EXTT1=
EXTT2=
EXTT3=
EXTT4=
EXTT5=
EXTT6=
EXTT7=
EXTT8=
EXTT9=
EXTT10=
EXTT11=
EXTT12=
EXTT13=
PLAYORDER=
